<svg xmlns="http://www.w3.org/2000/svg" xmlns:xlink="http://www.w3.org/1999/xlink" width="118" height="118" viewBox="0 0 118 118"><defs><filter id="a" x="0" y="0" width="118" height="118" filterUnits="userSpaceOnUse"><feOffset dy="3" input="SourceAlpha"/><feGaussianBlur stdDeviation="3" result="b"/><feFlood flood-color="#92959e" flood-opacity="0.161"/><feComposite operator="in" in2="b"/><feComposite in="SourceGraphic"/></filter></defs><g transform="translate(-169 -3554.453)"><g transform="matrix(1, 0, 0, 1, 169, 3554.45)" filter="url(#a)"><rect width="100" height="100" rx="10" transform="translate(9 6)" fill="#fff"/></g><g transform="translate(151.575 3583.869)"><g transform="translate(60.184 19.461)"><g transform="translate(0)"><path d="M97.045,186a1.046,1.046,0,1,0,1.046,1.046A1.047,1.047,0,0,0,97.045,186Z" transform="translate(-95.999 -185.998)" fill="#2dbdca"/></g></g><g transform="translate(66.462 15.275)"><path d="M175.878,152.276h-5.231v-5.231A1.046,1.046,0,0,0,169.6,146h-6.278a1.046,1.046,0,0,0-1.046,1.046v5.231h-5.231A1.046,1.046,0,0,0,156,153.322V159.6a1.046,1.046,0,0,0,1.046,1.046h5.231v5.231a1.046,1.046,0,0,0,1.046,1.046H169.6a1.046,1.046,0,0,0,1.046-1.046v-5.231h5.231a1.046,1.046,0,0,0,1.046-1.046v-6.278A1.046,1.046,0,0,0,175.878,152.276Zm-1.046,6.278H169.6a1.046,1.046,0,0,0-1.046,1.046v5.231h-4.185V159.6a1.046,1.046,0,0,0-1.046-1.046h-5.231v-4.185h5.231a1.046,1.046,0,0,0,1.046-1.046v-5.231h4.185v5.231a1.046,1.046,0,0,0,1.046,1.046h5.231Z" transform="translate(-155.999 -145.998)" fill="#2dbdca"/></g><g transform="translate(55.999)"><path d="M93.077,3.216A10.421,10.421,0,0,1,87.387,4.9a10.445,10.445,0,0,1-8.021-3.744h0a3.163,3.163,0,0,0-4.884,0A10.446,10.446,0,0,1,66.462,4.9a10.422,10.422,0,0,1-5.689-1.681A3.124,3.124,0,0,0,56,5.891V27.232a21.821,21.821,0,0,0,4.287,13.06A44.336,44.336,0,0,0,76.512,53.484a1.045,1.045,0,0,0,.825,0A44.338,44.338,0,0,0,93.563,40.293,21.827,21.827,0,0,0,97.85,27.232V5.891A3.124,3.124,0,0,0,93.077,3.216ZM91.89,39.035A43.4,43.4,0,0,1,76.924,51.37,43.261,43.261,0,0,1,61.959,39.034a19.715,19.715,0,0,1-3.867-11.8V5.891a1.032,1.032,0,0,1,1.542-.92A12.511,12.511,0,0,0,66.462,6.99,12.533,12.533,0,0,0,76.086,2.5a1.071,1.071,0,0,1,1.678,0A12.534,12.534,0,0,0,87.387,6.99a12.511,12.511,0,0,0,6.829-2.018,1.032,1.032,0,0,1,1.542.92V27.232h0A19.722,19.722,0,0,1,91.89,39.035Z" transform="translate(-55.999)" fill="#2dbdca"/></g><g transform="translate(60.184 5.079)"><g transform="translate(0)"><path d="M129.038,51.833a1.047,1.047,0,0,0-.953-.132,14.611,14.611,0,0,1-14.648-2.9,1.046,1.046,0,0,0-1.393,0A14.611,14.611,0,0,1,97.4,51.7a1.046,1.046,0,0,0-1.4.986v7.095a1.046,1.046,0,1,0,2.093,0V54.1a16.7,16.7,0,0,0,14.648-3.147A16.7,16.7,0,0,0,127.389,54.1V70.693a15.493,15.493,0,0,1-3.027,9.285A38.73,38.73,0,0,1,112.75,90.1,39.083,39.083,0,0,1,101.12,79.98a15.506,15.506,0,0,1-3.027-9.286v-2.54a1.046,1.046,0,1,0-2.093,0v2.54a17.61,17.61,0,0,0,3.447,10.545,41.309,41.309,0,0,0,12.8,10.981,1.046,1.046,0,0,0,1.006,0,40.909,40.909,0,0,0,12.783-10.984,17.6,17.6,0,0,0,3.448-10.543V52.688A1.046,1.046,0,0,0,129.038,51.833Z" transform="translate(-96 -48.539)" fill="#2dbdca"/></g></g></g></g></svg>