<svg xmlns="http://www.w3.org/2000/svg" xmlns:xlink="http://www.w3.org/1999/xlink" width="118" height="118" viewBox="0 0 118 118"><defs><filter id="a" x="0" y="0" width="118" height="118" filterUnits="userSpaceOnUse"><feOffset dy="3" input="SourceAlpha"/><feGaussianBlur stdDeviation="3" result="b"/><feFlood flood-color="#92959e" flood-opacity="0.161"/><feComposite operator="in" in2="b"/><feComposite in="SourceGraphic"/></filter></defs><g transform="translate(-169 -3554.453)"><g transform="matrix(1, 0, 0, 1, 169, 3554.45)" filter="url(#a)"><rect width="100" height="100" rx="10" transform="translate(9 6)" fill="#fff"/></g><g transform="translate(195.938 3577.472)"><path d="M26.05,62.859H2.859A.859.859,0,0,1,2,62V57.362a8.6,8.6,0,0,1,8.589-8.589h7.73a8.6,8.6,0,0,1,8.589,8.589V62A.859.859,0,0,1,26.05,62.859ZM3.718,61.142H25.191V57.362a6.879,6.879,0,0,0-6.871-6.871h-7.73a6.879,6.879,0,0,0-6.871,6.871Z" transform="translate(0 -5.635)" fill="#2dbdca" stroke="#2dbdca" stroke-width="1"/><path d="M15.343,43.859a7.043,7.043,0,1,1,7.043-7.043A7.043,7.043,0,0,1,15.343,43.859Zm0-12.369a5.325,5.325,0,1,0,5.325,5.325A5.325,5.325,0,0,0,15.343,31.491Z" transform="translate(-0.889 -2.955)" fill="#2dbdca" stroke="#2dbdca" stroke-width="1"/><path d="M67.05,62.856H63.159a.859.859,0,0,1,0-1.718h3.032V57.359a6.879,6.879,0,0,0-6.871-6.871h-7.73a6.879,6.879,0,0,0-6.871,6.871v3.779h3.917a.859.859,0,1,1,0,1.718H43.859A.859.859,0,0,1,43,62V57.359a8.6,8.6,0,0,1,8.589-8.589h7.73a8.6,8.6,0,0,1,8.589,8.589V62A.859.859,0,0,1,67.05,62.856Z" transform="translate(-5.784 -5.635)" fill="#2dbdca" stroke="#2dbdca" stroke-width="1"/><path d="M58.918,64.888h-2.5a.859.859,0,0,1,0-1.718h2.5a.859.859,0,1,1,0,1.718Z" transform="translate(-7.556 -7.666)" fill="#2dbdca" stroke="#2dbdca" stroke-width="1"/><path d="M56.343,43.859a7.043,7.043,0,1,1,7.043-7.043A7.043,7.043,0,0,1,56.343,43.859Zm0-12.369a5.325,5.325,0,1,0,5.325,5.325A5.325,5.325,0,0,0,56.343,31.491Z" transform="translate(-6.673 -2.955)" fill="#2dbdca" stroke="#2dbdca" stroke-width="1"/><path d="M35.048,31.456a.859.859,0,0,1-.508-.167c-.465-.344-11.377-8.41-11.377-15.117A7.341,7.341,0,0,1,35.048,10.4a7.341,7.341,0,0,1,11.884,5.769c0,6.709-10.908,14.779-11.377,15.117a.859.859,0,0,1-.508.168Zm-4.54-20.911a5.633,5.633,0,0,0-5.626,5.626c0,5.1,8.043,11.694,10.166,13.347,2.123-1.653,10.166-8.251,10.166-13.347a5.623,5.623,0,0,0-9.565-4.013.859.859,0,0,1-1.2,0,5.592,5.592,0,0,0-3.939-1.613Z" transform="translate(-2.986 0)" fill="#2dbdca" stroke="#2dbdca" stroke-width="1"/></g></g></svg>