<svg xmlns="http://www.w3.org/2000/svg" width="34.961" height="61" viewBox="0 0 34.961 61"><defs><style>.a{fill:#2dbdca;stroke:#fff;}</style></defs><path class="a" d="M27.747,30.833c-7.567-1.967-10-4-10-7.167,0-3.633,3.367-6.167,9-6.167,5.933,0,8.133,2.833,8.333,7h7.367c-.233-5.733-3.733-11-10.7-12.7V4.5h-10v7.2C15.28,13.1,10.08,17.3,10.08,23.733c0,7.7,6.367,11.533,15.667,13.767,8.333,2,10,4.933,10,8.033,0,2.3-1.633,5.967-9,5.967-6.867,0-9.567-3.067-9.933-7H9.48c.4,7.3,5.867,11.4,12.267,12.767V64.5h10V57.333c6.5-1.233,11.667-5,11.667-11.833C43.413,36.033,35.313,32.8,27.747,30.833Z" transform="translate(-8.952 -4)"/></svg>