<svg xmlns="http://www.w3.org/2000/svg" xmlns:xlink="http://www.w3.org/1999/xlink" width="118" height="118" viewBox="0 0 118 118"><defs><filter id="a" x="0" y="0" width="118" height="118" filterUnits="userSpaceOnUse"><feOffset dy="3" input="SourceAlpha"/><feGaussianBlur stdDeviation="3" result="b"/><feFlood flood-color="#92959e" flood-opacity="0.161"/><feComposite operator="in" in2="b"/><feComposite in="SourceGraphic"/></filter></defs><g transform="translate(-169 -3554.453)"><g transform="matrix(1, 0, 0, 1, 169, 3554.45)" filter="url(#a)"><rect width="100" height="100" rx="10" transform="translate(9 6)" fill="#fff"/></g><g transform="translate(202.015 3584.35)"><g transform="translate(0.007)"><path d="M51.5,26.763,44.141,22.5,51.5,18.239a.864.864,0,0,0,0-1.5L35.054,7.223a.865.865,0,0,0-.865,0l-1.731,1a.865.865,0,0,0,.8,1.534c.022-.011.043-.023.063-.036l1.3-.75,14.712,8.52L42.41,21.5,31.959,15.45l.779-1.108a.865.865,0,0,0-.713-1.361h-2.6A13,13,0,0,0,16.448,0H7.794a.865.865,0,0,0,0,1.731h8.654A11.263,11.263,0,0,1,27.7,12.981v.865a.865.865,0,0,0,.865.865h1.8l-4.4,6.279-4.4-6.279h1.8a.865.865,0,0,0,.865-.865V12.116a5.2,5.2,0,0,0-5.192-5.192H14.717a.865.865,0,1,0,0,1.731h4.327a3.462,3.462,0,0,1,3.462,3.462v.865h-2.6a.865.865,0,0,0-.709,1.361l.775,1.108L9.525,21.5,2.6,17.491l10.979-6.357a.865.865,0,0,0-.8-1.534c-.022.011-.043.023-.063.036L.438,16.742a.865.865,0,0,0,0,1.5L7.794,22.5.438,26.762a.865.865,0,0,0,0,1.5l8.221,4.76v8.521a.865.865,0,0,0,.433.749l16.443,9.519c.02.012.043.016.064.027s.048.021.073.03a.768.768,0,0,0,.594,0c.025-.01.048-.019.073-.03a.65.65,0,0,0,.064-.027l16.443-9.519a.865.865,0,0,0,.431-.749v-8.52L51.5,28.26a.865.865,0,0,0,0-1.5ZM2.6,27.51,9.525,23.5l14.712,8.52-6.923,4.01ZM25.1,49.558,10.39,41.041V34.022l6.491,3.757a.865.865,0,0,0,.865,0L25.1,33.52Zm.865-18.538L11.256,22.5l9.72-5.625L25.259,23a.865.865,0,0,0,1.418,0l4.287-6.121,9.72,5.625Zm15.577,10.02L26.833,49.558V33.52l7.356,4.258a.865.865,0,0,0,.865,0l6.491-3.757ZM34.621,36.03,27.7,32.02,42.41,23.5l6.923,4.01Z" transform="translate(-0.007)" fill="#2dbdca"/></g><g transform="translate(8.659 6.923)"><path d="M82.59,64H80.859a.865.865,0,1,0,0,1.731H82.59a.865.865,0,1,0,0-1.731Z" transform="translate(-79.994 -64)" fill="#2dbdca"/></g><g transform="translate(1.736)"><path d="M18.59,0H16.859a.865.865,0,1,0,0,1.731H18.59A.865.865,0,1,0,18.59,0Z" transform="translate(-15.994)" fill="#2dbdca"/></g><g transform="translate(5.198 3.462)"><path d="M55.783,32H48.859a.865.865,0,1,0,0,1.731h6.923a.865.865,0,0,0,0-1.731Z" transform="translate(-47.994 -32)" fill="#2dbdca"/></g><g transform="translate(38.083 37.212)"><path d="M352.859,344a.865.865,0,0,0-.865.865V346.6a.865.865,0,0,0,1.731,0v-1.731A.865.865,0,0,0,352.859,344Z" transform="translate(-351.994 -344)" fill="#2dbdca"/></g><g transform="translate(34.621 38.943)"><path d="M320.859,360a.865.865,0,0,0-.865.865V362.6a.865.865,0,1,0,1.731,0v-1.731A.865.865,0,0,0,320.859,360Z" transform="translate(-319.994 -360)" fill="#2dbdca"/></g></g></g></svg>