<svg xmlns="http://www.w3.org/2000/svg" width="71.713" height="71.713" viewBox="0 0 71.713 71.713"><defs><style>.a{fill:none;stroke:#2dbdca;stroke-linecap:round;stroke-linejoin:round;stroke-width:4px;}</style></defs><g transform="translate(2.828 2.828)"><path class="a" d="M52.363,47.856a30.236,30.236,0,0,1-17.835,6.185C13.51,54.041,1.5,30.02,1.5,30.02A55.4,55.4,0,0,1,16.693,12.185m11.53-5.465A27.383,27.383,0,0,1,34.528,6C55.546,6,67.556,30.02,67.556,30.02A55.546,55.546,0,0,1,61.071,39.6M40.893,36.386A9.008,9.008,0,1,1,28.163,23.655" transform="translate(-1.5 3.008)"/><path class="a" d="M1.5,1.5,67.556,67.556" transform="translate(-1.5 -1.5)"/></g></svg>