<svg xmlns="http://www.w3.org/2000/svg" width="59.546" height="76.219" viewBox="0 0 59.546 76.219"><defs><style>.a{fill:#2dbdca;}</style></defs><g transform="translate(-55.999)"><g transform="translate(61.954 27.689)"><g transform="translate(0)"><path class="a" d="M97.488,186a1.489,1.489,0,1,0,1.489,1.489A1.489,1.489,0,0,0,97.488,186Z" transform="translate(-95.999 -185.998)"/></g></g><g transform="translate(70.886 21.734)"><path class="a" d="M184.283,154.93H176.84v-7.443A1.489,1.489,0,0,0,175.352,146H166.42a1.489,1.489,0,0,0-1.489,1.489v7.443h-7.443A1.489,1.489,0,0,0,156,156.419v8.932a1.489,1.489,0,0,0,1.489,1.489h7.443v7.443a1.489,1.489,0,0,0,1.489,1.489h8.932a1.489,1.489,0,0,0,1.489-1.489v-7.443h7.443a1.489,1.489,0,0,0,1.489-1.489v-8.932A1.489,1.489,0,0,0,184.283,154.93Zm-1.489,8.932h-7.443a1.489,1.489,0,0,0-1.489,1.489v7.443h-5.955v-7.443a1.489,1.489,0,0,0-1.489-1.489h-7.443v-5.955h7.443a1.489,1.489,0,0,0,1.489-1.489v-7.443h5.955v7.443a1.489,1.489,0,0,0,1.489,1.489h7.443Z" transform="translate(-155.999 -145.998)"/></g><g transform="translate(55.999)"><path class="a" d="M108.753,4.576a14.828,14.828,0,0,1-8.095,2.392A14.862,14.862,0,0,1,89.247,1.641h0a4.5,4.5,0,0,0-6.95,0A14.862,14.862,0,0,1,70.886,6.968a14.829,14.829,0,0,1-8.095-2.392A4.445,4.445,0,0,0,56,8.382V38.746a31.047,31.047,0,0,0,6.1,18.581A63.082,63.082,0,0,0,85.185,76.1a1.487,1.487,0,0,0,1.174,0A63.085,63.085,0,0,0,109.445,57.33a31.055,31.055,0,0,0,6.1-18.583V8.382A4.445,4.445,0,0,0,108.753,4.576ZM107.066,55.54A61.743,61.743,0,0,1,85.771,73.09,61.553,61.553,0,0,1,64.479,55.538a28.051,28.051,0,0,1-5.5-16.792V8.382A1.469,1.469,0,0,1,61.17,7.074a17.8,17.8,0,0,0,9.716,2.872A17.832,17.832,0,0,0,84.578,3.554a1.523,1.523,0,0,1,2.387,0,17.833,17.833,0,0,0,13.693,6.391,17.8,17.8,0,0,0,9.716-2.872,1.469,1.469,0,0,1,2.193,1.309V38.746h0A28.06,28.06,0,0,1,107.066,55.54Z" transform="translate(-55.999)"/></g><g transform="translate(61.954 7.226)"><path class="a" d="M143.007,53.226a1.489,1.489,0,0,0-1.357-.187,20.788,20.788,0,0,1-20.841-4.122,1.489,1.489,0,0,0-1.982,0,20.788,20.788,0,0,1-20.841,4.122A1.489,1.489,0,0,0,96,54.442V64.536a1.489,1.489,0,0,0,2.977,0V56.454a23.76,23.76,0,0,0,20.841-4.478,23.76,23.76,0,0,0,20.841,4.478V80.06a22.044,22.044,0,0,1-4.307,13.21,55.105,55.105,0,0,1-16.52,14.406,55.609,55.609,0,0,1-16.549-14.4A22.063,22.063,0,0,1,98.977,80.06V76.445a1.489,1.489,0,0,0-2.977,0V80.06a25.056,25.056,0,0,0,4.9,15,58.774,58.774,0,0,0,18.208,15.624,1.489,1.489,0,0,0,1.432,0,58.205,58.205,0,0,0,18.187-15.628,25.04,25.04,0,0,0,4.905-15V54.442A1.489,1.489,0,0,0,143.007,53.226Z" transform="translate(-96 -48.539)"/></g></g></svg>