<?xml version="1.0" encoding="utf-8"?>
<!-- Generator: Adobe Illustrator 16.0.0, SVG Export Plug-In . SVG Version: 6.00 Build 0)  -->
<!DOCTYPE svg PUBLIC "-//W3C//DTD SVG 1.1//EN" "http://www.w3.org/Graphics/SVG/1.1/DTD/svg11.dtd">
<svg version="1.1" id="Layer_1" xmlns="http://www.w3.org/2000/svg" xmlns:xlink="http://www.w3.org/1999/xlink" x="0px" y="0px"
	 width="40px" height="12.375px" viewBox="0 13.796 40 12.375" enable-background="new 0 13.796 40 12.375" xml:space="preserve">
<g>
	<path fill="#46BCC9" d="M5.733,14.089c1.024,0.221,1.395,1.245,1.73,2.251c0.089,0.265-0.044,0.415-0.521,0.689
		c-0.088-0.318-0.177-0.618-0.256-0.927c-0.283-1.077-0.989-1.492-2.048-1.192c-0.856,0.248-1.704,0.521-2.56,0.794
		c-0.124,0.035-0.247,0.098-0.362,0.159c-0.742,0.371-0.989,0.927-0.724,1.713c0.521,1.589,1.024,3.187,1.589,4.759
		c0.176,0.493,0.07,0.873-0.168,1.288c-0.15-0.123-0.159-0.291-0.203-0.441c-0.618-1.774-1.218-3.558-1.827-5.333
		c-0.027-0.079-0.186-0.998-0.115-1.377c0.176-0.944,1.059-1.28,1.933-1.527c0.892-0.256,1.739-0.679,2.649-0.856
		C5.141,14.036,5.441,14.027,5.733,14.089z"/>
	<path fill="#1A191B" d="M29.094,23.183c0-1.315,0-2.569,0-3.885c0.768,0.044,1.518-0.07,2.269,0.08
		c0.998,0.194,1.607,0.98,1.563,1.978c-0.043,0.998-0.794,1.757-1.8,1.819C30.462,23.218,29.791,23.183,29.094,23.183z
		 M29.844,22.556c0.504,0.018,0.98,0.071,1.449-0.07c0.582-0.177,0.899-0.663,0.873-1.315c-0.026-0.583-0.397-1.042-0.953-1.156
		c-0.442-0.089-0.901-0.071-1.369-0.036C29.844,20.853,29.844,21.69,29.844,22.556z"/>
	<path fill="#ED7114" d="M4.312,25.946c1.324-0.856,2.781-1.271,4.167-1.846c0.609-0.256,0.741-0.529,0.539-1.174
		c-0.353-1.121-0.671-2.252-1.069-3.355c-0.194-0.547-0.158-0.989,0.23-1.413c0.15,0.071,0.132,0.247,0.177,0.371
		c0.441,1.386,0.874,2.772,1.315,4.159c0.309,0.988-0.106,1.792-1.104,2.083c-1.209,0.362-2.41,0.716-3.62,1.078
		C4.761,25.911,4.576,25.98,4.312,25.946z"/>
	<path fill="#46BCC9" d="M13.873,22.194c0.211,0.105,0.309,0.255,0.424,0.379c-0.354,0.583-1.219,0.831-2.093,0.609
		c-0.812-0.203-1.413-0.918-1.457-1.73c-0.053-0.989,0.406-1.739,1.262-2.057c0.856-0.318,1.81-0.115,2.287,0.494
		c-0.3,0.441-0.3,0.441-0.733,0.194c-0.724-0.406-1.625-0.141-1.952,0.565c-0.353,0.759-0.043,1.598,0.707,1.861
		C12.875,22.715,13.414,22.609,13.873,22.194z"/>
	<path fill="#1A191B" d="M36.545,21.69c0.009,0.875-0.706,1.572-1.615,1.563c-0.893,0-1.589-0.671-1.607-1.537
		c-0.017-0.874,0.653-1.536,1.571-1.544C35.865,20.181,36.537,20.799,36.545,21.69z M35.794,21.699c0-0.556-0.325-0.9-0.856-0.9
		c-0.547,0-0.873,0.354-0.864,0.937c0.008,0.546,0.354,0.9,0.874,0.892C35.477,22.617,35.804,22.265,35.794,21.699z"/>
	<path fill="#46BCC9" d="M16.733,21.426c-0.027-0.706-0.618-0.847-1.589-0.405c-0.124-0.125-0.185-0.284-0.238-0.451
		c0.512-0.424,1.475-0.521,2.022-0.229c0.397,0.212,0.539,0.582,0.565,0.989c0.035,0.6,0.009,1.2,0.009,1.836
		c-0.265-0.027-0.565,0.202-0.715-0.221c-0.397,0.3-0.848,0.371-1.324,0.238c-0.433-0.124-0.68-0.433-0.671-0.856
		c0.009-0.415,0.283-0.706,0.724-0.813C15.921,21.418,16.336,21.479,16.733,21.426z M16.239,21.946v0.01
		c-0.133,0-0.265-0.01-0.389,0c-0.212,0.017-0.371,0.123-0.38,0.344c-0.008,0.211,0.142,0.345,0.336,0.406
		c0.3,0.089,0.574,0.009,0.812-0.177c0.141-0.114,0.229-0.282,0.176-0.459c-0.062-0.193-0.247-0.098-0.379-0.114
		C16.362,21.938,16.301,21.946,16.239,21.946z"/>
	<path fill="#ED7114" d="M25.836,23.175c-0.247,0-0.451,0-0.681,0c0-0.963,0-1.925,0-2.923c0.257,0.027,0.584-0.221,0.688,0.265
		c0.39-0.273,0.813-0.397,1.291-0.3c0.521,0.115,0.829,0.424,0.891,0.954c0.089,0.652,0.027,1.315,0.035,1.978
		c-0.247,0.07-0.46,0.027-0.715,0.035c0-0.538,0-1.032,0-1.535c-0.009-0.609-0.211-0.856-0.697-0.866
		c-0.495-0.009-0.786,0.291-0.822,0.839c-0.017,0.247,0,0.503,0,0.75C25.836,22.627,25.836,22.874,25.836,23.175z"/>
	<path fill="#ED7114" d="M22.904,20.19c0.918,0.018,1.572,0.68,1.545,1.563c-0.026,0.883-0.715,1.51-1.624,1.491
		c-0.918-0.026-1.571-0.688-1.545-1.571C21.307,20.781,21.986,20.164,22.904,20.19z M22.878,20.791c-0.538-0.01-0.9,0.361-0.9,0.918
		c0,0.547,0.379,0.944,0.893,0.936c0.493-0.009,0.864-0.38,0.882-0.909C23.77,21.188,23.408,20.799,22.878,20.791z"/>
	<path fill="#1A191B" d="M39.75,20.86c-0.159,0.15-0.327,0.239-0.494,0.31c-0.574-0.459-1.078-0.485-1.439-0.098
		c-0.31,0.346-0.282,1.024,0.044,1.325c0.38,0.343,0.9,0.291,1.387-0.178c0.158,0.098,0.335,0.195,0.503,0.301
		c-0.362,0.636-0.971,0.865-1.747,0.662c-0.672-0.168-1.123-0.741-1.148-1.439c-0.026-0.68,0.396-1.271,1.077-1.492
		C38.575,20.058,39.459,20.216,39.75,20.86z"/>
	<path fill="#46BCC9" d="M18.375,19.086c0.088-0.009,0.159-0.018,0.229-0.027c0.433-0.008,0.441-0.008,0.441,0.424
		c0,1.104,0,2.207,0,3.312c0,0.113,0.026,0.238-0.053,0.37c-0.186,0.053-0.38,0.027-0.618,0.01
		C18.375,21.822,18.375,20.481,18.375,19.086z"/>
	<path fill="#46BCC9" d="M20.6,23.165c-0.22,0.044-0.415,0.035-0.635,0.01c0-1.343,0-2.685,0-4.053
		c0.185-0.097,0.397-0.053,0.635-0.027C20.6,20.446,20.6,21.788,20.6,23.165z"/>
	<path fill="#1A191B" d="M3.932,24.71c0.088-0.15,0.009-0.397,0.273-0.397c0.071,0.178-0.018,0.336-0.035,0.495
		c0.132,0.168,0.353,0.185,0.459,0.353c-0.194,0.203-0.335-0.053-0.53-0.053c-0.105,0.105,0.053,0.414-0.273,0.407
		c-0.132-0.204,0.265-0.575-0.194-0.716c-0.167-0.054-0.291-0.098-0.441,0.044c0.044,0.106,0.097,0.22,0.15,0.344
		c0.035,0.071,0.035,0.16-0.036,0.194c-0.097,0.054-0.168,0-0.203-0.096c-0.176-0.381-0.344-0.77-0.521-1.157
		c0.211-0.124,0.397-0.23,0.626-0.247c0.292-0.018,0.53,0.158,0.459,0.432C3.587,24.613,3.773,24.621,3.932,24.71z M2.907,24.198
		c0.053,0.167,0.08,0.31,0.221,0.405c0.106-0.105,0.38-0.123,0.239-0.37C3.252,24.004,3.084,24.162,2.907,24.198z"/>
	<path fill="#7CCAD5" d="M5.627,16.35c-1.236,0.432-2.464,0.856-3.699,1.289c-0.018-0.044-0.036-0.097-0.053-0.141
		c1.236-0.433,2.463-0.865,3.699-1.298C5.592,16.243,5.609,16.296,5.627,16.35z"/>
	<path fill="#7CCAD5" d="M5.971,17.162c-1.228,0.432-2.455,0.865-3.682,1.298c-0.018-0.044-0.036-0.098-0.053-0.141
		c1.228-0.433,2.446-0.865,3.673-1.298C5.927,17.064,5.953,17.118,5.971,17.162z"/>
	<path fill="#7CCAD5" d="M2.483,19.13c1.236-0.433,2.481-0.865,3.717-1.298c0.018,0.044,0.035,0.097,0.053,0.142
		c-1.236,0.432-2.48,0.865-3.717,1.307C2.519,19.228,2.501,19.174,2.483,19.13z"/>
	<path fill="#ED7114" d="M6.863,24.031c-0.018,0.211-0.124,0.36-0.335,0.388c-0.239,0.026-0.389-0.115-0.415-0.345
		c-0.018-0.211,0.115-0.361,0.327-0.389C6.677,23.651,6.81,23.802,6.863,24.031z"/>
	<path fill="#7CCAD5" d="M2.828,19.863c0.777-0.283,1.545-0.556,2.322-0.839c0.018,0.044,0.035,0.097,0.053,0.142
		c-0.777,0.282-1.545,0.565-2.322,0.848C2.863,19.96,2.846,19.907,2.828,19.863z"/>
</g>
</svg>
