<svg xmlns="http://www.w3.org/2000/svg" xmlns:xlink="http://www.w3.org/1999/xlink" width="118" height="118" viewBox="0 0 118 118"><defs><filter id="a" x="0" y="0" width="118" height="118" filterUnits="userSpaceOnUse"><feOffset dy="3" input="SourceAlpha"/><feGaussianBlur stdDeviation="3" result="b"/><feFlood flood-color="#92959e" flood-opacity="0.161"/><feComposite operator="in" in2="b"/><feComposite in="SourceGraphic"/></filter></defs><g transform="translate(-169 -3554.453)"><g transform="matrix(1, 0, 0, 1, 169, 3554.45)" filter="url(#a)"><rect width="100" height="100" rx="10" transform="translate(9 6)" fill="#fff"/></g><g transform="translate(126.052 3582.96)"><g transform="translate(83.596 0)"><path d="M109.951,16a11.274,11.274,0,0,0-6.118,1.8V8.034h1.61a1.093,1.093,0,0,0,1.093-1.093V1.093A1.093,1.093,0,0,0,105.443,0H84.689A1.093,1.093,0,0,0,83.6,1.093V6.941a1.093,1.093,0,0,0,1.093,1.093H86.3V47.3a8.767,8.767,0,0,0,17.533,0V36.887A11.339,11.339,0,1,0,109.951,16Zm-21.465.442h13.16v2.5H88.486Zm-2.7-14.257H104.35V5.848H85.782Zm15.864,5.848v6.223H88.486V8.034Zm0,39.264a6.581,6.581,0,0,1-13.16,0V43.973h5.941a1.093,1.093,0,0,0,1.093-1.093V40.046a1.093,1.093,0,0,0-2.186,0v1.74H88.486V26.562h4.848v3.6a1.093,1.093,0,0,0,2.186,0V25.468a1.093,1.093,0,0,0-1.093-1.093H88.486V21.13h11.981a11.321,11.321,0,0,0,1.18,13.928c0,.007,0,.014,0,.021V47.3Zm8.3-10.8a9.154,9.154,0,1,1,9.154-9.154A9.165,9.165,0,0,1,109.951,36.5Z" transform="translate(-83.596 0)" fill="#2dbdca"/><path d="M282.248,186.231a1.093,1.093,0,0,0-1.5,0c-.467.442-4.567,4.426-4.567,8.041a5.319,5.319,0,1,0,10.637,0C286.814,190.667,282.715,186.674,282.248,186.231ZM281.5,197.4a3.136,3.136,0,0,1-3.132-3.132c0-1.848,1.858-4.284,3.131-5.679,1.274,1.4,3.133,3.837,3.133,5.679A3.136,3.136,0,0,1,281.5,197.4Z" transform="translate(-255.123 -165.604)" fill="#2dbdca"/><path d="M174.788,311.592a1.093,1.093,0,1,0-.4,1.327A1.1,1.1,0,0,0,174.788,311.592Z" transform="translate(-162.947 -276.927)" fill="#2dbdca"/></g></g></g></svg>