<svg xmlns="http://www.w3.org/2000/svg" width="60" height="60.004" viewBox="0 0 60 60.004"><defs><style>.a{fill:#2dbdca;}</style></defs><g transform="translate(0)"><g transform="translate(0 0)"><path class="a" d="M46.789,4.066a13.661,13.661,0,0,0-19.336-.112l-.112.112L15.975,15.432a1.391,1.391,0,0,0-.533.533L4.005,27.388A13.7,13.7,0,0,0,23.426,46.724l.014-.014L34.862,35.246a1.405,1.405,0,0,0,.407-.407L46.677,23.4A13.674,13.674,0,0,0,46.789,4.066ZM21.447,44.732A10.895,10.895,0,0,1,6,29.366L16.718,18.646,32.1,34.053ZM44.7,21.4,34.076,32.047,18.7,16.667,29.333,6.031A10.865,10.865,0,1,1,44.7,21.4Z" transform="translate(-0.013 0)"/></g><g transform="translate(26.538 9.924)"><path class="a" d="M196.4,71.155a1.373,1.373,0,0,0-1.979-.014l-4.855,4.771a1.4,1.4,0,0,0,1.95,2.007l.014-.014,4.841-4.771A1.4,1.4,0,0,0,196.4,71.155Z" transform="translate(-189.137 -70.727)"/></g><g transform="translate(32.781 32.735)"><path class="a" d="M256.868,237.327l-.014-.014a13.5,13.5,0,0,0-19.112-.126l-.126.126a13.613,13.613,0,1,0,19.252.014Zm-20.431,9.612a10.8,10.8,0,0,1,17.372-8.574L238.668,253.52A10.861,10.861,0,0,1,236.437,246.939Zm18.438,7.634a10.808,10.808,0,0,1-14.215.926L255.8,240.358A10.776,10.776,0,0,1,254.876,254.573Z" transform="translate(-233.626 -233.287)"/></g></g></svg>