<svg xmlns="http://www.w3.org/2000/svg" xmlns:xlink="http://www.w3.org/1999/xlink" width="118" height="118" viewBox="0 0 118 118"><defs><filter id="a" x="0" y="0" width="118" height="118" filterUnits="userSpaceOnUse"><feOffset dy="3" input="SourceAlpha"/><feGaussianBlur stdDeviation="3" result="b"/><feFlood flood-color="#92959e" flood-opacity="0.161"/><feComposite operator="in" in2="b"/><feComposite in="SourceGraphic"/></filter></defs><g transform="translate(-169 -3554.453)"><g transform="matrix(1, 0, 0, 1, 169, 3554.45)" filter="url(#a)"><rect width="100" height="100" rx="10" transform="translate(9 6)" fill="#fff"/></g><path d="M35.145,1.5H19.823V6.608H35.145ZM24.93,34.7h5.108V19.376H24.93Zm20.507-16.88,3.626-3.626a28.215,28.215,0,0,0-3.6-3.6l-3.626,3.626a22.982,22.982,0,1,0,3.6,3.6Zm-17.953,32.2A17.876,17.876,0,1,1,45.36,32.145,17.863,17.863,0,0,1,27.484,50.022Z" transform="translate(200.829 3582.632)" fill="#2dbdca" stroke="#fff" stroke-width="1.5"/></g></svg>